<?xml version="1.0" standalone="no"?>
<!DOCTYPE svg PUBLIC "-//W3C//DTD SVG 20010904//EN"
 "http://www.w3.org/TR/2001/REC-SVG-20010904/DTD/svg10.dtd">
<svg version="1.0" xmlns="http://www.w3.org/2000/svg"
 width="96.000000pt" height="96.000000pt" viewBox="0 0 96.000000 96.000000"
 preserveAspectRatio="xMidYMid meet">
<metadata>
Created by potrace 1.14, written by Peter Selinger 2001-2017
</metadata>
<g transform="translate(0.000000,96.000000) scale(0.100000,-0.100000)"
fill="#000000" stroke="none">
<path d="M445 850 c-15 -5 -21 -19 -25 -51 -5 -43 -6 -44 -50 -51 -72 -12
-148 -48 -179 -84 -29 -33 -29 -34 -30 -164 l-1 -130 39 -43 39 -42 -20 -28
c-11 -15 -25 -27 -32 -27 -7 0 -20 -8 -29 -18 -50 -55 27 -113 107 -82 29 11
44 53 26 74 -18 23 5 59 33 53 12 -3 43 -9 70 -12 45 -7 47 -9 47 -40 0 -19
-8 -39 -20 -50 -43 -39 -8 -95 60 -95 52 0 85 30 75 68 -4 15 -13 31 -21 35
-21 12 -19 77 4 78 9 0 24 2 32 4 85 18 88 17 100 -5 9 -16 9 -25 1 -33 -17
-17 -13 -44 11 -67 39 -36 122 -21 134 25 7 27 -17 65 -42 65 -7 0 -21 12 -32
27 l-20 28 40 43 40 43 -4 134 c-3 126 -4 135 -28 160 -32 35 -81 59 -150 75
-30 7 -61 14 -67 16 -8 2 -13 20 -13 43 0 22 -4 43 -10 46 -16 10 -64 13 -85
5z m-186 -666 c8 -7 -12 -24 -29 -24 -43 0 -67 24 -32 33 15 4 52 -1 61 -9z
m519 1 c9 -9 -20 -25 -45 -25 -27 0 -41 19 -22 31 14 9 57 5 67 -6z m-259 -61
c11 -10 -19 -25 -45 -22 -32 4 -44 24 -17 31 17 4 53 -1 62 -9z"/>
</g>
</svg>
